<svg xmlns="http://www.w3.org/2000/svg" viewBox="0 0 35 35"><defs><style>.cls-1{fill:#162983;}</style></defs><g id="Layer_2" data-name="Layer 2"><g id="Layer_1-2" data-name="Layer 1"><path class="cls-1" d="M16.75,16.47A5.53,5.53,0,0,0,16,19a3.66,3.66,0,0,0,.18,1.8,1,1,0,0,0,.93.6,1,1,0,0,0,.79-.38,2.73,2.73,0,0,0,.6-1.1l.37-4.17a2.12,2.12,0,0,0-.57-.08A1.81,1.81,0,0,0,16.75,16.47Z"/><path class="cls-1" d="M34.94,15.84c-.06-.44-.13-.88-.2-1.32a14.94,14.94,0,0,0-1.06-3.72A17.4,17.4,0,0,0,22.14.62,16.12,16.12,0,0,0,18.55,0s-.09,0-.13,0H16.61A2.17,2.17,0,0,1,16,.06,17.31,17.31,0,0,0,6.89,3.59a17.48,17.48,0,0,0-5.53,7.14c0,.06,0,.13-.07.19A14,14,0,0,0,.58,13a17.87,17.87,0,0,0-.52,3,1.74,1.74,0,0,1-.06.51v1.92A1.46,1.46,0,0,1,.06,19a16.92,16.92,0,0,0,1,4.55,17.35,17.35,0,0,0,2.48,4.55,16.22,16.22,0,0,0,1.91,2.14,17.72,17.72,0,0,0,5.39,3.49,17.49,17.49,0,0,0,4.83,1.22,3.29,3.29,0,0,1,.63.08h2.4a5.57,5.57,0,0,1,.82-.1A17,17,0,0,0,25.66,33,16.53,16.53,0,0,0,28,31.5a11.35,11.35,0,0,0,1.4-1.18c.19-.2.43-.37.62-.58.47-.54,1-1.06,1.39-1.63a20.88,20.88,0,0,0,1.19-1.76.33.33,0,0,0,0-.06,14.24,14.24,0,0,0,1-2,17.75,17.75,0,0,0,1.28-5,3.07,3.07,0,0,1,.07-.6V16.34A2.14,2.14,0,0,1,34.94,15.84ZM24,21.75a3.51,3.51,0,0,1-2.93,1.42,2.65,2.65,0,0,1-1.33-.33,2.2,2.2,0,0,1-.89-.92,2.84,2.84,0,0,1-2.41,1.21,2.44,2.44,0,0,1-1.54-.51,3,3,0,0,1-1-1.47A5.22,5.22,0,0,1,13.74,19a6.68,6.68,0,0,1,1.47-3.68,3.73,3.73,0,0,1,2.94-1.39,4.17,4.17,0,0,1,2.32.62l.57.38-.46,5.38c-.11.84.18,1.27.87,1.27a1.53,1.53,0,0,0,1.31-1A6,6,0,0,0,23.34,18a6.55,6.55,0,0,0-1.27-4.73,5.18,5.18,0,0,0-4.17-1.66,5.47,5.47,0,0,0-3.1.89,6.12,6.12,0,0,0-2.16,2.53,9.6,9.6,0,0,0-.89,3.72A7,7,0,0,0,13,23.69a5.3,5.3,0,0,0,4.29,1.69A8,8,0,0,0,19,25.21a7.17,7.17,0,0,0,1.4-.42l.34,1.52a5,5,0,0,1-1.51.59,8.21,8.21,0,0,1-1.9.22,8.66,8.66,0,0,1-4.22-.95,5.93,5.93,0,0,1-2.57-2.84,10.19,10.19,0,0,1-.75-4.54,10.41,10.41,0,0,1,1.17-4.53,7.64,7.64,0,0,1,2.89-3.09,7.91,7.91,0,0,1,4.14-1.1,7.87,7.87,0,0,1,4,1,6,6,0,0,1,2.52,2.75,8.78,8.78,0,0,1,.74,4.16A6.47,6.47,0,0,1,24,21.75Z"/></g></g></svg>