<svg xmlns="http://www.w3.org/2000/svg" viewBox="0 0 35 34.78"><defs><style>.cls-1{fill:#162983;}</style></defs><g id="Layer_2" data-name="Layer 2"><g id="Layer_1-2" data-name="Layer 1"><path class="cls-1" d="M20.24,28.69c0-2,0-4,0-5.94,0-.14,0-.19.18-.18h3.74c.13,0,.17,0,.19-.16.21-1.43.43-2.85.65-4.27,0-.17,0-.34.08-.51s0-.13-.11-.13c-.54,0-1.07,0-1.6,0h-3c-.12,0-.17,0-.17-.16,0-1.12,0-2.24,0-3.35a2.44,2.44,0,0,1,.87-1.93,2.61,2.61,0,0,1,1.42-.54c.68-.07,1.36,0,2.05,0h.55c.12,0,.15,0,.15-.15v-4c0-.08,0-.13-.11-.15A24,24,0,0,0,21,6.85a6.6,6.6,0,0,0-3.86,1.29A5.82,5.82,0,0,0,15,11.48a8.42,8.42,0,0,0-.24,2c0,1.29,0,2.57,0,3.85,0,.15,0,.18-.18.18H10.47c-.13,0-.16,0-.16.16v4.75c0,.13,0,.16.16.16h4.12c.13,0,.18,0,.18.17q0,5.94,0,11.88c0,.18,0,.18-.17.15A17.34,17.34,0,0,1,2.31,26.21,16.29,16.29,0,0,1,.16,19.92,17.19,17.19,0,0,1,4.32,6,17,17,0,0,1,13.75.41,16.91,16.91,0,0,1,19.51.12,17.18,17.18,0,0,1,29.64,4.91a17.06,17.06,0,0,1,5.08,9.51A17.52,17.52,0,0,1,20.49,34.76c-.25,0-.25,0-.25-.21Z"/></g></g></svg>