<svg xmlns="http://www.w3.org/2000/svg" viewBox="0 0 40 40"><defs><style>.cls-1{fill:#162983;}</style></defs><g id="Layer_2" data-name="Layer 2"><g id="Layer_1-2" data-name="Layer 1"><path class="cls-1" d="M20,0A20,20,0,1,0,40,20,20,20,0,0,0,20,0Zm0,38.67A18.67,18.67,0,1,1,38.67,20,18.7,18.7,0,0,1,20,38.67Z"/><path class="cls-1" d="M33.5,23l-3.12-7.81,1.35.45a.56.56,0,0,0,.69-.44.68.68,0,0,0-.39-.81l-9.37-3.13v-.14a2.8,2.8,0,0,0-1.83-2.76,2.31,2.31,0,0,0-2.75,1.36L8.7,6.58A.56.56,0,0,0,8,7a.68.68,0,0,0,.39.81l1.85.62L6.9,16.82a.65.65,0,0,0-.38.61,5.27,5.27,0,0,0,2.77,4.82,4,4,0,0,0,4.87-1.14,5.53,5.53,0,0,0,1.34-3.68.64.64,0,0,0-.41-.62L12,9,17.77,11v.14a2.79,2.79,0,0,0,1.89,2.77V26.77H18.12a2.45,2.45,0,0,0-2.26,2.59v.37a2.57,2.57,0,0,0-1.78,2.55v.92a.63.63,0,0,0,.58.66H25.77a.63.63,0,0,0,.58-.66v-.92a2.56,2.56,0,0,0-1.78-2.55v-.37a2.45,2.45,0,0,0-2.26-2.59H20.77V13.88a2.52,2.52,0,0,0,1.58-1.38l6.31,2.11L25.31,23a.65.65,0,0,0-.38.61,5.29,5.29,0,0,0,2.77,4.83,4,4,0,0,0,4.87-1.14,5.63,5.63,0,0,0,1.34-3.69A.64.64,0,0,0,33.5,23ZM11,21.32a3.55,3.55,0,0,1-3.32-3.27h6.65A3.58,3.58,0,0,1,11,21.32Zm2.85-4.57H8.14L11,9.62ZM24.1,31a1.23,1.23,0,0,1,1.14,1.28v.28h-10v-.28A1.23,1.23,0,0,1,16.33,31Zm-1.79-2.93a1.22,1.22,0,0,1,1.14,1.29v.34H17v-.34a1.22,1.22,0,0,1,1.14-1.29Zm-.8-16.6a.28.28,0,0,0,0,.13,1.38,1.38,0,0,1-1.27,1.06A1.36,1.36,0,0,1,19,11.61a1.71,1.71,0,0,1,.43-1.72,1.17,1.17,0,0,1,1.54-.09A1.68,1.68,0,0,1,21.51,11.47Zm7.9,4.33,2.85,7.13H26.55Zm0,11.7a3.55,3.55,0,0,1-3.32-3.27h6.65A3.58,3.58,0,0,1,29.41,27.5Z"/></g></g></svg>