<svg xmlns="http://www.w3.org/2000/svg" viewBox="0 0 40 40"><defs><style>.cls-1{fill:#162983;}</style></defs><g id="Layer_2" data-name="Layer 2"><g id="Layer_1-2" data-name="Layer 1"><path class="cls-1" d="M20,0A20,20,0,1,0,40,20,20,20,0,0,0,20,0Zm0,38.67A18.67,18.67,0,1,1,38.67,20,18.7,18.7,0,0,1,20,38.67Z"/><path class="cls-1" d="M16,9.38l.28,0,.14,0,.39,0H17.9a.17.17,0,0,0,.17-.17l-.22-3.31a.17.17,0,0,0-.18-.15h0l-.15,0-.17,0-.24,0-.27,0-.14,0-.15,0-.3.06-.33.07-.17,0-.17,0-.36.09-.36.11-.19.06-.18.06-.19.07-.18.06-.37.14-.37.16-.18.07L13,6.91,12.83,7l-.17.08-.33.17L12,7.41l-.31.17-.28.17-.26.16-.23.15-.21.15-.19.12-.15.12-.16.11a.17.17,0,0,0,0,.23l1.37,2a.17.17,0,0,0,.22,0l.13-.07.13-.08.16-.08.19-.1.2-.1.23-.1.24-.11.26-.11.27-.1.29-.1L14,9.86l.15,0,.15-.05.15,0,.3-.09.3-.07.15,0,.16,0,.15,0,.15,0Z"/><path class="cls-1" d="M10.53,11.44,9.08,9.74a.16.16,0,0,0-.23,0h0l-.11.1-.06.06L8.61,10l-.17.17-.18.18-.19.2c-.06.08-.13.15-.2.23L7.66,11l-.21.26a3,3,0,0,0-.22.28L7,11.8,6.9,12l-.11.15-.11.16-.11.15-.2.32-.2.33,0,.08,0,.08L6,13.38c-.13.22-.24.44-.35.65l-.16.31-.07.15-.07.15-.13.29-.11.27c0,.09-.07.17-.1.25s-.11.29-.16.43l-.06.17-.06.18a.17.17,0,0,0,.1.21l1.28.49a.17.17,0,0,0,.21-.09l.06-.14.07-.14.09-.17.1-.19L6.74,16l.12-.23L7,15.52l.07-.12.08-.13L7.33,15l.37-.53.1-.13,0-.06.05-.07L8.1,14c.07-.08.15-.16.22-.25l.1-.12.11-.12.11-.12.11-.12L9,13l.22-.21.21-.2.2-.18.19-.17.18-.15.16-.13.13-.11.26-.19a.16.16,0,0,0,0-.23Z"/><path class="cls-1" d="M19.34,9.34l.13,0h0l.15,0,.17,0,.19,0,.19,0L22,5.72l-.27,0-.18,0-.18,0-.34,0-.31,0-.3,0-.26,0h-.64a.16.16,0,0,0-.16.16l-.17,3.5A.16.16,0,0,0,19.34,9.34Z"/><path class="cls-1" d="M5.6,18.09h0l-1.13-.3a.16.16,0,0,0-.2.12h0l0,.15,0,.17c0,.06,0,.14,0,.21l0,.24a.68.68,0,0,1,0,.14l0,.13c0,.19-.05.38-.07.6l0,.32,0,.34c0,.23,0,.47,0,.71v1.29l0,.17v.18l0,.18v.35l.05.33,0,.32c0,.1,0,.2,0,.3v0a.18.18,0,0,0,.17.14h.45A.16.16,0,0,0,5,24H5V24a2.83,2.83,0,0,1,0-.29V22.13H5V22l0-.34v-.17l0-.17,0-.17V21c0-.22.07-.44.11-.65l.06-.31.06-.29c0-.19.09-.37.13-.54a.56.56,0,0,0,0-.12l0-.11.06-.2c0-.07,0-.13,0-.18l.06-.17,0-.14A.17.17,0,0,0,5.6,18.09Z"/><path class="cls-1" d="M36.05,22.64v-.5h0v-.06h0V22l0-.35v-.21l0-.23,0-.23v-.22c0-.28-.08-.55-.13-.82l-.06-.38-.08-.37c0-.24-.11-.47-.16-.67l0-.16,0-.14-.07-.27c0-.08,0-.16-.07-.23l-.06-.2-.07-.21a.16.16,0,0,0-.21-.11l-5.43,1.55a.17.17,0,0,0-.12.19l0,.1,0,.14c0,.05,0,.1,0,.16l0,.18s0,.07,0,.1l0,.1c0,.15,0,.3,0,.46l0,.25a2.26,2.26,0,0,0,0,.26c0,.18,0,.36,0,.55v.52l0,.35v.05h0v.32l0,.13,0,.27,0,.25,0,.24a1.55,1.55,0,0,1,0,.23,1.12,1.12,0,0,1,0,.21l-.06.29,0,.07,0,0h6.65A.17.17,0,0,0,36,24h0v-.78c0-.13,0-.27,0-.41Z"/><path class="cls-1" d="M34.32,15.67a.16.16,0,0,0,.09-.22h0l-.06-.13-.08-.16-.11-.24L34,14.65,34,14.51l-.07-.13-.16-.29-.27-.46-.1-.16-.21-.33c-.15-.22-.29-.45-.46-.67l-.12-.17-.06-.08-.06-.09-.26-.33-.27-.32a1,1,0,0,0-.13-.16l-.14-.16L31.51,11l-.14-.15-.27-.29-.27-.28L30.56,10l-.25-.23-.24-.22-.23-.2-.21-.17-.18-.15-.16-.12-.17-.14a.17.17,0,0,0-.23,0L26,12.36a.16.16,0,0,0,0,.22l.09.09.1.1.11.12.13.14.14.16.15.17.16.19a1.56,1.56,0,0,1,.16.2l.17.21.16.23a.76.76,0,0,1,.08.11l.08.12.08.12.08.12c0,.09.11.17.16.25l.15.25,0,.06,0,.07.07.12.25.5.12.24.05.12a1.17,1.17,0,0,0,.05.11l.1.23.08.2,0,.1,0,.1a.88.88,0,0,1,.05.15l.05.14.06.16,0,.14a.17.17,0,0,0,.22.1Z"/><path class="cls-1" d="M27.53,7.74h0l-.13-.07-.07,0-.09,0L27,7.44l-.25-.13-.27-.14L26.2,7l-.31-.14-.34-.15L25.2,6.6l-.09,0-1,4.49.17.11.18.12h0l.14.1.12.09.07,0,.06.05.12.09a.16.16,0,0,0,.24,0L27.57,8A.17.17,0,0,0,27.53,7.74Z"/><path class="cls-1" d="M24.93,3.59a.42.42,0,0,0-.43-.52.38.38,0,0,0-.37.24L22.87,5.88,21,9.69l-5.18,10.6A2.59,2.59,0,0,0,17,23.76h0a2.6,2.6,0,0,0,3.47-1.19,3.73,3.73,0,0,0,.2-.56l2.62-11.39,1-4.34Zm-6.68,19a1.27,1.27,0,1,1,1.27-1.27A1.27,1.27,0,0,1,18.25,22.63Z"/></g></g></svg>