<svg xmlns="http://www.w3.org/2000/svg" viewBox="0 0 40 40"><defs><style>.cls-1{fill:#162983;}</style></defs><g id="Layer_2" data-name="Layer 2"><g id="Layer_1-2" data-name="Layer 1"><path class="cls-1" d="M20,0A20,20,0,1,0,40,20,20,20,0,0,0,20,0Zm0,38.67A18.67,18.67,0,1,1,38.67,20,18.7,18.7,0,0,1,20,38.67Z"/><path class="cls-1" d="M22.2,25.36A1.21,1.21,0,0,0,21,24.15H18.33v2.42H21A1.21,1.21,0,0,0,22.2,25.36Z"/><path class="cls-1" d="M29,19.31H22a2.43,2.43,0,0,1-1.71-.71l-.81-.8a1.46,1.46,0,0,0-1-.43H10.58a1.45,1.45,0,0,0-1.45,1.45v1.46H30.35A1.46,1.46,0,0,0,29,19.31Zm-17.91,0h-1v-1h1Zm1.93,0H12v-1h1Zm1,0v-1h1v1Z"/><path class="cls-1" d="M22.2,28.75A1.21,1.21,0,0,0,21,27.54H18.33V30H21A1.21,1.21,0,0,0,22.2,28.75Z"/><path class="cls-1" d="M9.13,31.41a1.47,1.47,0,0,0,1.45,1.46H29a1.48,1.48,0,0,0,1.46-1.46V21.25H9.13ZM28.5,24.63h1v1h-1Zm0,1.94h1v1h-1Zm0,1.94h1v1h-1ZM17.36,23.18h1v-1h1v1h1v-1h1v1a2.17,2.17,0,0,1,1.11,3.85,2.13,2.13,0,0,1,.82,1.69,2.17,2.17,0,0,1-1.94,2.15v1h-1v-1h-1v1h-1v-1h-1Zm-7.26-1h1v1h-1Zm0,1.94h1v5.33h-1Z"/><polygon class="cls-1" points="16.39 16.4 16.39 16.4 16.39 16.4 16.39 16.4"/><path class="cls-1" d="M16.39,16.4H18.5a2.45,2.45,0,0,1,1.71.71l.8.8a1.42,1.42,0,0,0,1,.43h5.49V10.59H16.39Zm10.17-1.93h-1v-1h1Zm-9.2-2.91h9.2v1h-9.2Zm0,1.94h7.26v1H17.36Z"/><path class="cls-1" d="M15.43,9.62H25.59V4.78H12V16.4h3.39Zm9.19-1h-1v-1h1ZM13,5.75H24.62v1H13Zm0,1.94h9.69v1H13Z"/></g></g></svg>