<svg xmlns="http://www.w3.org/2000/svg" viewBox="0 0 40 40"><defs><style>.cls-1{fill:#162983;}</style></defs><g id="Layer_2" data-name="Layer 2"><g id="Layer_1-2" data-name="Layer 1"><path class="cls-1" d="M20,0A20,20,0,1,0,40,20,20,20,0,0,0,20,0Zm0,38.67A18.67,18.67,0,1,1,38.67,20,18.7,18.7,0,0,1,20,38.67Z"/><path class="cls-1" d="M26,13.33A4,4,0,1,0,22,9l-9.38,6.88a3.91,3.91,0,0,0-2-.53,4,4,0,1,0,2,7.48L22,29.68a4,4,0,1,0,.16-1.53L13.7,21.93a4,4,0,0,0,0-5.2l8.48-6.21A4,4,0,0,0,26,13.33Zm0-6.66a2.67,2.67,0,1,1-2.67,2.66A2.67,2.67,0,0,1,26,6.67Zm0,20a2.67,2.67,0,1,1-2.67,2.66A2.67,2.67,0,0,1,26,26.67ZM10.67,22a2.67,2.67,0,1,1,2.66-2.67A2.66,2.66,0,0,1,10.67,22Z"/></g></g></svg>