<svg xmlns="http://www.w3.org/2000/svg" viewBox="0 0 35 35"><defs><style>.cls-1{fill:#162983;}</style></defs><g id="Layer_2" data-name="Layer 2"><g id="Layer_1-2" data-name="Layer 1"><path class="cls-1" d="M17.5,0A17.5,17.5,0,1,0,35,17.5,17.51,17.51,0,0,0,17.5,0ZM12.74,24A6.51,6.51,0,1,1,19,17.35,6.5,6.5,0,0,1,12.74,24Zm12.38-2.18a4.25,4.25,0,0,1-.9,1.2A1.94,1.94,0,0,1,21.37,23a5,5,0,0,1-1.22-2.07,10.45,10.45,0,0,1,.21-7.35,4.4,4.4,0,0,1,1-1.53,2,2,0,0,1,3,.1,6.26,6.26,0,0,1,1.42,3,10.93,10.93,0,0,1,.27,2.56A9.45,9.45,0,0,1,25.12,21.83Zm3.4,0a3.62,3.62,0,0,1-.37.91c-.17.32-.44.32-.64,0A4.16,4.16,0,0,1,27,21.19a21.39,21.39,0,0,1-.17-6c.08-.76.25-1.51.4-2.26a1.92,1.92,0,0,1,.22-.54c.08-.16.17-.34.39-.34a.44.44,0,0,1,.39.34,9.15,9.15,0,0,1,.39,1.15A19.7,19.7,0,0,1,29,17.65,17.6,17.6,0,0,1,28.52,21.84Z"/></g></g></svg>