<svg xmlns="http://www.w3.org/2000/svg" viewBox="0 0 40 40"><defs><style>.cls-1{fill:#162983;}</style></defs><g id="Layer_2" data-name="Layer 2"><g id="Layer_1-2" data-name="Layer 1"><path class="cls-1" d="M20,0A20,20,0,1,0,40,20,20,20,0,0,0,20,0Zm0,38.67A18.67,18.67,0,1,1,38.67,20,18.7,18.7,0,0,1,20,38.67Z"/><path class="cls-1" d="M31.69,6.52h-8a.44.44,0,0,0-.39.25L21.56,10.3h0a.45.45,0,0,0,0,.2V14H18.86V7a.43.43,0,0,0-.43-.44h-8a.46.46,0,0,0-.4.25L8.31,10.3h0a.46.46,0,0,0-.05.2v8a.44.44,0,0,0,.44.44h3.54v1.77H10.47a.45.45,0,0,0-.4.24L8.31,24.44h0a.46.46,0,0,0-.05.2v8A.44.44,0,0,0,8.7,33h8a.44.44,0,0,0,.4-.26h0l1.65-3.71h2.81v3.54A.44.44,0,0,0,22,33h8a.44.44,0,0,0,.4-.26h0l1.76-4a.53.53,0,0,0,0-.18V21.1a.44.44,0,0,0-.43-.44H26.37V18.89h3.54a.44.44,0,0,0,.4-.26h0l1.76-4a.48.48,0,0,0,0-.18V7A.44.44,0,0,0,31.69,6.52ZM17.1,14V10.6L18,8.83V14Zm.64.89-.64,1.45V14.92Zm-7-7.51h7l-1.33,2.65h-7ZM9.14,18V10.94h7.07V14h-4v.89h4V18Zm1.6,3.53h1.5v2.65H9.42Zm5.47,10.61H9.14V25.08h3.1v4h.88v-4h3.09Zm.17-8H13.12V21.54h4.59Zm.72,6.32V29.05h.64ZM18,28.17H17.1V24.74L18,23Zm3.58-3.73h0a.45.45,0,0,0,0,.2v3.53H18.86V21.1a.43.43,0,0,0-.43-.44H13.12V18.89h3.54a.44.44,0,0,0,.4-.26h0l1.65-3.7h2.81v3.53a.44.44,0,0,0,.44.44h3.53v1.77H23.72a.43.43,0,0,0-.39.24Zm3.93-2.9h0v2.65H22.67L24,21.54ZM22.4,32.15v-3.1h4v-.88h-4V25.08h7.07v7.07Zm8.83-3.63-.88,2V24.74L31.23,23Zm-.27-7-1.32,2.65H26.37V21.54ZM29.47,18h-3.1V14h-.88v4H22.4V10.94h7.07Zm.17-8h-7L24,7.41h7Zm.71,6.31V10.6l.88-1.77v5.55h0Z"/></g></g></svg>