<svg xmlns="http://www.w3.org/2000/svg" viewBox="0 0 40 40"><defs><style>.cls-1{fill:#162983;}</style></defs><g id="Layer_2" data-name="Layer 2"><g id="Layer_1-2" data-name="Layer 1"><path class="cls-1" d="M20,0A20,20,0,1,0,40,20,20,20,0,0,0,20,0Zm0,38.67A18.67,18.67,0,1,1,38.67,20,18.7,18.7,0,0,1,20,38.67Z"/><path class="cls-1" d="M31,12.28H25.8V10.69a2,2,0,0,0-2-2H16.63a2,2,0,0,0-2,2v1.59H9.46a1.2,1.2,0,0,0-1.2,1.2v8.87a1.2,1.2,0,0,0,.8,1.13V29a1.19,1.19,0,0,0,1.19,1.2H30.18a1.2,1.2,0,0,0,1.2-1.2V23.48a1.2,1.2,0,0,0,.79-1.13V13.48A1.19,1.19,0,0,0,31,12.28ZM15.43,10.69a1.2,1.2,0,0,1,1.2-1.2H23.8a1.2,1.2,0,0,1,1.2,1.2v1.59h-.8V10.69a.4.4,0,0,0-.4-.4H16.63a.4.4,0,0,0-.4.4v1.59h-.8Zm8,.4v1.19H17V11.09ZM30.58,29a.4.4,0,0,1-.4.4H10.25a.39.39,0,0,1-.39-.4V23.61l8.76,1.21v1a1.2,1.2,0,0,0,1.2,1.2h.8a1.19,1.19,0,0,0,1.19-1.2v-1l8.77-1.21ZM19.42,25.83V23.44a.4.4,0,0,1,.4-.4h.8a.39.39,0,0,1,.39.4v2.39a.39.39,0,0,1-.39.4h-.8A.4.4,0,0,1,19.42,25.83Zm12-3.48a.39.39,0,0,1-.35.39l-.11,0L21.81,24v-.58a1.19,1.19,0,0,0-1.19-1.19h-.8a1.19,1.19,0,0,0-1.2,1.19V24L9.4,22.74a.38.38,0,0,1-.34-.39V13.48a.4.4,0,0,1,.4-.4H31a.4.4,0,0,1,.4.4Z"/></g></g></svg>