<svg xmlns="http://www.w3.org/2000/svg" viewBox="0 0 35 35"><defs><style>.cls-1{fill:#162983;}</style></defs><g id="Layer_2" data-name="Layer 2"><g id="Layer_1-2" data-name="Layer 1"><path class="cls-1" d="M34.94,15.84c-.06-.44-.13-.88-.2-1.32a14.94,14.94,0,0,0-1.06-3.72A17.4,17.4,0,0,0,22.14.62,16.12,16.12,0,0,0,18.55,0s-.09,0-.13,0H16.61A2.17,2.17,0,0,1,16,.06,17.31,17.31,0,0,0,6.89,3.59a17.48,17.48,0,0,0-5.53,7.14c0,.06,0,.13-.07.19A14.29,14.29,0,0,0,.58,13a18.17,18.17,0,0,0-.52,3,1.74,1.74,0,0,1-.06.51v1.92A1.46,1.46,0,0,1,.06,19a16.92,16.92,0,0,0,1,4.55,17.35,17.35,0,0,0,2.48,4.55,16.22,16.22,0,0,0,1.91,2.14,17.72,17.72,0,0,0,5.39,3.49,17.49,17.49,0,0,0,4.83,1.22,3.29,3.29,0,0,1,.63.08h2.4a5.57,5.57,0,0,1,.82-.1A17,17,0,0,0,25.66,33,16.53,16.53,0,0,0,28,31.5a11.35,11.35,0,0,0,1.4-1.18c.19-.2.43-.37.62-.58.47-.54,1-1.06,1.39-1.63a20.88,20.88,0,0,0,1.19-1.76.33.33,0,0,0,0-.06l0-.05,0,.05a14.24,14.24,0,0,0,1-2,17.75,17.75,0,0,0,1.28-5,3.07,3.07,0,0,1,.07-.6V16.34A2.14,2.14,0,0,1,34.94,15.84Zm-9.08-4.49c0,.43-.11.86-.17,1.29-.24,1.56-.48,3.12-.71,4.69s-.44,2.91-.66,4.37l-.12.8,0,.26c-.09.58-.18,1.16-.28,1.74a8.68,8.68,0,0,1-.17,1,1.3,1.3,0,0,1-1,1.06,1.89,1.89,0,0,1-.91-.11,4.74,4.74,0,0,1-1.22-.59c-1-.62-1.91-1.24-2.85-1.89-.62-.42-1.23-.83-1.82-1.28a9.45,9.45,0,0,1-.77-.65.91.91,0,0,1,0-1.46c.56-.57,1.15-1.12,1.74-1.67a3.58,3.58,0,0,0,.29-.26l1.14-1.08,2.2-2.09a2,2,0,0,0,.59-.91c0-.19,0-.28-.23-.28a1.28,1.28,0,0,0-.28.07,4.63,4.63,0,0,0-1,.51L16.77,16.8l-1.56,1.07L13.38,19.1l-1.05.71a2,2,0,0,1-1.07.36A3.71,3.71,0,0,1,10,20l-2.74-.82L6.62,19a.58.58,0,0,1-.24-1,2.14,2.14,0,0,1,.74-.44c.52-.21,1-.48,1.53-.71l2.17-1c.38-.16.77-.3,1.14-.49l2.54-1.08c.82-.34,1.63-.69,2.46-1,1.12-.44,2.22-.92,3.33-1.37l3.06-1.24a6.24,6.24,0,0,1,1.21-.44,1.75,1.75,0,0,1,.72,0C25.72,10.39,25.91,10.79,25.86,11.35Z"/></g></g></svg>