<svg xmlns="http://www.w3.org/2000/svg" viewBox="0 0 40 40"><defs><style>.cls-1{fill:#162983;}</style></defs><g id="Layer_2" data-name="Layer 2"><g id="Layer_1-2" data-name="Layer 1"><path class="cls-1" d="M30.68,29.76,25.4,24.48a9.41,9.41,0,1,0-.92.91l5.28,5.29a.7.7,0,0,0,.46.19.66.66,0,0,0,.65-.66.68.68,0,0,0-.19-.45ZM18.4,26.37a8,8,0,1,1,8-8A8,8,0,0,1,18.4,26.37Z"/><path class="cls-1" d="M20,0A20,20,0,1,0,40,20,20,20,0,0,0,20,0Zm0,38.67A18.67,18.67,0,1,1,38.67,20,18.7,18.7,0,0,1,20,38.67Z"/></g></g></svg>