<svg xmlns="http://www.w3.org/2000/svg" viewBox="0 0 35 35"><defs><style>.cls-1{fill:#162983;}</style></defs><g id="Layer_2" data-name="Layer 2"><g id="Layer_1-2" data-name="Layer 1"><path class="cls-1" d="M34.94,15.84c-.06-.44-.13-.88-.2-1.32a14.94,14.94,0,0,0-1.06-3.72A17.4,17.4,0,0,0,22.14.62,16.12,16.12,0,0,0,18.55,0s-.09,0-.13,0H16.61A2.17,2.17,0,0,1,16,.06,17.31,17.31,0,0,0,6.89,3.59a17.48,17.48,0,0,0-5.53,7.14c0,.06,0,.13-.07.19A14,14,0,0,0,.58,13a17.87,17.87,0,0,0-.52,3,1.74,1.74,0,0,1-.06.51v1.92A1.46,1.46,0,0,1,.06,19a16.92,16.92,0,0,0,1,4.55,17.35,17.35,0,0,0,2.48,4.55,16.22,16.22,0,0,0,1.91,2.14,17.72,17.72,0,0,0,5.39,3.49,17.49,17.49,0,0,0,4.83,1.22,3.29,3.29,0,0,1,.63.08h2.4a5.57,5.57,0,0,1,.82-.1A17,17,0,0,0,25.66,33,16.53,16.53,0,0,0,28,31.5a11.35,11.35,0,0,0,1.4-1.18c.19-.2.43-.37.62-.58.47-.54,1-1.06,1.39-1.63a20.88,20.88,0,0,0,1.19-1.76.33.33,0,0,0,0-.06,14.24,14.24,0,0,0,1-2,17.75,17.75,0,0,0,1.28-5,3.07,3.07,0,0,1,.07-.6V16.34A2.14,2.14,0,0,1,34.94,15.84Zm-8.37-2c-.1.06-.09.15-.08.24a12.63,12.63,0,0,1-.27,2.94,12.86,12.86,0,0,1-4.12,7,11.79,11.79,0,0,1-6.24,2.8A4.55,4.55,0,0,0,15,27H13a.09.09,0,0,0-.09-.05,9.23,9.23,0,0,1-1-.13,12.21,12.21,0,0,1-4.5-1.71s-.09,0-.06-.09a8.85,8.85,0,0,0,6.32-1.76c-.05-.08-.11-.07-.16-.08a4.28,4.28,0,0,1-3-1.47,4.2,4.2,0,0,1-.84-1.41c0-.1-.05-.17.11-.14a2.58,2.58,0,0,0,.39,0,4.42,4.42,0,0,0,1.38-.13A4.46,4.46,0,0,1,8.07,16c0-.25,0-.26.21-.15a4.51,4.51,0,0,0,.64.26,4.15,4.15,0,0,0,1.1.18l-.14-.11A4.4,4.4,0,0,1,8.59,10.6c.12-.23.11-.22.28,0a12.25,12.25,0,0,0,3.67,3A12.39,12.39,0,0,0,17.62,15c.13,0,.14,0,.12-.13a5.08,5.08,0,0,1-.06-1.29A4.39,4.39,0,0,1,20.73,9.8c.24-.08.48-.14.73-.21h1.17c0,.05.07,0,.11.05A4.23,4.23,0,0,1,25.1,10.8a.44.44,0,0,0,.46.12A10,10,0,0,0,28,10l0,0a4.37,4.37,0,0,1-1.81,2.32c.07,0,.09,0,.11,0a9.41,9.41,0,0,0,2.08-.56c.06,0,.13-.11.21,0A9.56,9.56,0,0,1,26.57,13.87Z"/></g></g></svg>